<?xml version="1.0" encoding="UTF-8" standalone="no" ?>
<!DOCTYPE svg PUBLIC "-//W3C//DTD SVG 1.1//EN" "http://www.w3.org/Graphics/SVG/1.1/DTD/svg11.dtd">
<svg xmlns="http://www.w3.org/2000/svg" xmlns:xlink="http://www.w3.org/1999/xlink" version="1.1" width="500" height="500" viewBox="0 0 500 500" xml:space="preserve">
<desc>Created with Fabric.js 4.6.0</desc>
<defs>
</defs>
<g transform="matrix(1 0 0 1 346.31 246.85)" style="" id="9kNnEmjWHrrjqaQgzcb17"  >
		<text xml:space="preserve" font-family="Fira Sans" font-size="34" font-style="normal" font-weight="500" line-height="1" style="stroke: rgb(108,59,244); stroke-width: 0; stroke-dasharray: none; stroke-linecap: butt; stroke-dashoffset: 0; stroke-linejoin: miter; stroke-miterlimit: 4; fill: rgb(255,255,255); fill-rule: nonzero; opacity: 1; white-space: pre;" ><tspan x="-51.5" y="14.39" >io</tspan></text>
</g>
<g transform="matrix(1 0 0 1 206.51 250)" id="EXh55BbVdlhXEvVYRvgCm"  >
<path style="stroke: none; stroke-width: 1; stroke-dasharray: none; stroke-linecap: butt; stroke-dashoffset: 0; stroke-linejoin: miter; stroke-miterlimit: 4; fill: rgb(11,54,168); fill-rule: nonzero; opacity: 1;" vector-effect="non-scaling-stroke"  transform=" translate(-19.01, -19)" d="M 0 19 C 0 8.50659 8.51062 0 19.009 0 C 29.507379999999998 0 38.018 8.50659 38.018 19 C 38.018 29.49341 29.50738 38 19.009 38 C 8.510620000000001 38 0 29.49341 0 19 z" stroke-linecap="round" />
</g>
<g transform="matrix(1 0 0 1 206.53 249.9)" id="ufd8BCCdO6yc2pf3v0e3y"  >
<path style="stroke: none; stroke-width: 1; stroke-dasharray: none; stroke-linecap: butt; stroke-dashoffset: 0; stroke-linejoin: miter; stroke-miterlimit: 4; fill: rgb(255,255,255); fill-rule: nonzero; opacity: 1;" vector-effect="non-scaling-stroke"  transform=" translate(-19.03, -18.9)" d="M 11.876 15.151 Q 11.831 14.850999999999999 11.770999999999999 14.52 C 11.770999999999999 14.61 11.786 14.541 11.816999999999998 14.309999999999999 C 11.847999999999997 14.078999999999997 11.886999999999999 13.684 11.936999999999998 13.121999999999998 C 12.006143175704437 13.031221810627377 12.064219506671165 12.932525618117449 12.109999999999998 12.827999999999998 C 12.144999999999998 12.743999999999998 12.177999999999997 12.665999999999997 12.209999999999997 12.594999999999997 C 12.13690966218518 12.507127968022672 12.07007869616308 12.41423292525195 12.009999999999998 12.316999999999997 C 11.97130055935226 12.26134902088261 11.947855619930312 12.196530658951344 11.941999999999998 12.128999999999996 Q 12.061999999999998 11.211999999999996 12.168 10.383999999999997 C 12.19945187112822 10.190149975997285 12.291525831890796 10.011253421055551 12.431 9.872999999999998 C 12.637927784584855 9.644745090009984 12.867431143384547 9.438024546390407 13.115999999999996 9.255999999999998 C 13.32873836732311 9.078205995437008 13.55509976325255 8.917379065685072 13.792999999999997 8.774999999999999 C 13.995097039376478 8.653965959169504 14.206027592347096 8.548333542784853 14.423999999999998 8.458999999999998 C 14.59643054687768 8.416949708556526 14.758424339526893 8.340036689357532 14.9 8.233 C 14.938178195013911 8.179160503452671 14.999063948277515 8.145950092581614 15.065 8.143 C 15.225155653557096 8.142216406500008 15.37033928266278 8.237038234723503 15.434 8.384 C 15.532371474239607 8.61139633242917 15.57620511994024 8.858645490209305 15.562 9.106 C 15.55009530780662 9.346211334859612 15.507069385156777 9.583862329495854 15.434 9.813 C 15.364369735257082 10.027588441147751 15.32138072625035 10.249922222104443 15.306 10.475000000000001 Q 15.306 10.565000000000001 15.328999999999999 11.167000000000002 Q 15.351999999999999 11.769000000000002 15.4 12.9 C 15.415182450640897 13.483371323439174 15.4933017479159 14.063398723807223 15.633000000000001 14.629999999999999 C 15.78824174623799 15.275885114573509 15.976488727812027 15.913388190471407 16.196999999999996 16.54 C 16.418374452552538 17.23570407077116 16.757643845254947 17.888197249757145 17.2 18.469 C 17.478501941330556 18.851770485924828 17.916101086837227 19.086947823165165 18.389 19.108 C 18.89786368023366 19.032441771226683 19.370852926359003 18.801187058571603 19.743 18.446 C 20.46515572102935 17.846686458591968 21.130323002851377 17.181853936348116 21.73 16.46 Q 22.602999999999998 15.438 23.287999999999997 14.55 C 23.694863235869374 14.034361225704343 24.066378059112967 13.49178921765795 24.400000000000002 12.925999999999998 C 24.654912350326985 12.49303119858482 24.963339255957575 12.093890497180524 25.317999999999998 11.738 C 25.682683942031645 11.37531543627575 26.08495181124399 11.052495471232842 26.517999999999994 10.775000000000002 L 26.863999999999997 10.575000000000001 C 26.92755269066431 10.533949484428273 26.99979571104526 10.508270685714665 27.074999999999996 10.500000000000002 C 27.28652886427566 10.528786755010433 27.453174144947244 10.694615147051275 27.482999999999997 10.906000000000002 C 27.592521098074382 11.296153978487895 27.6401005492612 11.701085477950178 27.623999999999995 12.106000000000002 Q 27.533999999999995 12.842000000000002 27.473999999999997 13.565000000000001 Q 27.337999999999997 14.693000000000001 27.073999999999998 15.911000000000001 Q 26.81 17.129 26.391 18.438000000000002 Q 26.180999999999997 19.1 26.029999999999998 19.596000000000004 C 25.94350023206295 19.872630599827776 25.873378668082164 20.154118592379202 25.819999999999993 20.439000000000004 C 25.799999999999997 20.569000000000003 25.772 20.732000000000003 25.737 20.927000000000003 C 25.701999999999998 21.122000000000003 25.663999999999998 21.351000000000003 25.624 21.611000000000004 C 25.523999999999997 21.862000000000005 25.413999999999998 22.111000000000004 25.294 22.364000000000004 C 25.183441751610317 22.593816058222096 25.10020699169163 22.835800985243772 25.046 23.085000000000008 Q 24.945999999999998 23.506000000000004 24.874 24.063000000000006 C 24.874 24.133000000000006 24.869 24.224000000000007 24.858999999999998 24.334000000000007 C 24.848999999999997 24.444000000000006 24.837999999999997 24.559000000000008 24.828999999999997 24.680000000000007 Q 24.483999999999998 26.214000000000006 24.122999999999998 27.659000000000006 C 24.09137966460558 27.779116451671154 24.046083524518476 27.895208781079575 23.987999999999996 28.005000000000006 C 23.826290018244734 28.062862648662566 23.67625354554293 28.149226758231322 23.544999999999995 28.260000000000005 C 23.35158478732204 28.4196298333893 23.177712315501417 28.601558172630185 23.026999999999994 28.802000000000007 C 22.888619901860675 28.96136246340198 22.7378133460849 29.109493958321423 22.575999999999993 29.245000000000008 C 22.501403200474652 29.317880279976396 22.407265337951817 29.367554502636047 22.304999999999993 29.38800000000001 C 22.230744754593047 29.392290128217045 22.158124826615943 29.36505765522563 22.104999999999993 29.31300000000001 C 22.047635033474496 29.24106815123923 22.020713576836304 29.149535198669376 22.029999999999994 29.05800000000001 C 22.03636091699291 28.989679374821783 22.05148505817008 28.922460969589913 22.074999999999996 28.85800000000001 C 22.250728995877825 28.381390695519016 22.374446980585486 27.887189314871076 22.443999999999996 27.384000000000007 Q 22.601999999999997 26.42200000000001 22.737999999999996 25.007000000000012 Q 22.752999999999997 24.70700000000001 22.977999999999994 23.382000000000012 Q 23.202999999999992 22.057000000000013 23.639999999999993 19.71200000000001 Q 23.698999999999995 19.33600000000001 23.797999999999995 18.78700000000001 Q 23.896999999999995 18.23800000000001 24.045999999999996 17.53100000000001 C 24.115999999999996 17.29000000000001 24.173999999999996 17.082000000000008 24.218999999999994 16.90700000000001 C 24.255894197007063 16.781931276000577 24.278702281067638 16.65313268365851 24.286999999999995 16.52300000000001 C 24.293163560780677 16.44666220565759 24.274957419517428 16.370336459592423 24.234999999999996 16.30500000000001 C 24.196085766329034 16.25799378243546 24.13686988040651 16.232668749462306 24.075999999999997 16.23700000000001 C 23.94590901471353 16.281912476195853 23.83116392274676 16.362684701054633 23.744999999999997 16.47000000000001 C 23.529617631827126 16.689695787262504 23.329170298162378 16.92355100987138 23.144999999999996 17.17000000000001 C 23.004999999999995 17.34000000000001 22.861999999999995 17.521000000000008 22.715999999999998 17.71100000000001 C 22.57 17.90100000000001 22.415999999999997 18.08700000000001 22.256999999999998 18.268000000000008 Q 21.849999999999998 18.689000000000007 21.503999999999998 19.06800000000001 L 20.389999999999997 20.181000000000008 L 20.020999999999997 20.407000000000007 Q 19.802999999999997 20.54200000000001 19.502 20.723000000000006 C 19.27232398359501 21.057203528750993 18.957916609307404 21.324329003722024 18.590999999999998 21.497000000000007 C 18.238286383033643 21.69507533997853 17.843277026165616 21.80582883153094 17.438999999999997 21.820000000000007 C 17.003627610300956 21.815429934388074 16.580439746874966 21.675648641761818 16.227999999999998 21.42000000000001 C 15.779061470296023 21.087122337646893 15.398458870935356 20.670870074652978 15.106999999999998 20.19400000000001 Q 14.865999999999998 19.78700000000001 14.632999999999997 19.38200000000001 Q 14.399999999999997 18.977000000000007 14.132999999999997 18.570000000000007 L 14.057999999999998 18.585000000000008 C 13.923784737110033 18.980727362997797 13.830627896825373 19.389210054749594 13.779999999999998 19.80400000000001 Q 13.579999999999998 20.93300000000001 13.260999999999997 23.11300000000001 Q 12.913999999999998 25.35400000000001 12.733999999999998 26.63300000000001 C 12.644473597439859 27.180746478958188 12.5840554399951 27.732854945331866 12.553 28.287000000000003 C 12.549682014132307 28.561015210604268 12.485465110108468 28.830862839215076 12.364999999999998 29.07700000000001 C 12.265309755063122 29.258784032470817 12.08232386853651 29.37965201068778 11.875999999999998 29.40000000000001 C 11.719192010167454 29.41862985121088 11.563597162928817 29.4463430965345 11.409999999999997 29.483000000000008 Q 11.109999999999998 29.55100000000001 10.687999999999999 29.65500000000001 C 10.640261715447771 29.645846797389797 10.594543163991709 29.628236688680794 10.552999999999999 29.60300000000001 C 10.513450756707325 29.579025642882886 10.490370722787674 29.53517357843555 10.492999999999999 29.489000000000008 L 10.582999999999998 28.933000000000007 L 10.432999999999998 28.361000000000008 Q 10.522999999999998 27.89400000000001 10.613999999999997 27.46100000000001 Q 10.672999999999996 26.56100000000001 10.718999999999998 25.76100000000001 C 10.7441690154273 25.57334457808409 10.781920740277027 25.387592728381016 10.831999999999997 25.20500000000001 C 10.88697758782497 25.013983171984226 10.920517514706008 24.817439200461358 10.931999999999997 24.61900000000001 C 10.927285818942826 24.515091751319176 10.912211084831775 24.41191357118131 10.886999999999997 24.31100000000001 C 10.861911707389131 24.210062221199912 10.84683876632681 24.10689631348447 10.841999999999997 24.00300000000001 C 10.867986983567016 23.18344250061966 10.954219615766693 22.366906374790954 11.1 21.56 C 11.248201988399028 20.74525133632123 11.33610712607082 19.92068109055577 11.362999999999998 19.092999999999996 Q 11.32 18.747 11.26 18.4 Q 11.336 17.857999999999997 11.501 17.046 Q 11.665999999999999 16.234 11.876 15.151 Z" stroke-linecap="round" />
</g>
<g transform="matrix(1 0 0 1 248.54 250.13)" id="HfxJ8Hst_xRwRe3c4hg-i"  >
<path style="stroke: none; stroke-width: 1; stroke-dasharray: none; stroke-linecap: butt; stroke-dashoffset: 0; stroke-linejoin: miter; stroke-miterlimit: 4; fill: rgb(255,255,255); fill-rule: nonzero; opacity: 1;" vector-effect="non-scaling-stroke"  transform=" translate(-61.04, -19.13)" d="M 72.57 8.175 L 72.57 30.075 L 68.947 30.075 L 68.947 13.658 L 62.613 30.074 L 59.463 30.074 L 53.1 13.658 L 53.1 30.074 L 49.506 30.074 L 49.506 8.175 L 53.854 8.175 L 61.1 25.663 L 68.222 8.175 L 72.57 8.175 Z" stroke-linecap="round" />
</g>
<g transform="matrix(1 0 0 1 272.42 252.39)" id="do5_rDqdXeHjXVIcsrNre"  >
<path style="stroke: none; stroke-width: 1; stroke-dasharray: none; stroke-linecap: butt; stroke-dashoffset: 0; stroke-linejoin: miter; stroke-miterlimit: 4; fill: rgb(255,255,255); fill-rule: nonzero; opacity: 1;" vector-effect="non-scaling-stroke"  transform=" translate(-84.92, -21.39)" d="M 87.883 13.658 C 88.97706631068388 14.411464546679934 89.80430740475242 15.492164190094922 90.246 16.745 L 90.246 12.712 L 93.838 12.712 L 93.838 30.074 L 90.246 30.074 L 90.246 26.04 C 89.80498178460877 27.293200726360844 88.97759463826623 28.374091171032624 87.883 29.127 C 86.69383993828274 29.928298647205807 85.28331046459031 30.336453344899596 83.85 30.294 C 82.42676633498671 30.318692152456194 81.0246475002671 29.94756341398226 79.8 29.222 C 78.59103532253947 28.48476212114364 77.62214511800684 27.412347613652702 77.011 26.135 C 76.30733836102185 24.650330014325945 75.96109631643337 23.02151976302746 76 21.379000000000005 C 75.96224465246605 19.74591498525533 76.30746176833387 18.126682322732485 77.008 16.65100000000001 C 77.62051642097434 15.373363850956828 78.59033531281362 14.300727483478411 79.8 13.562999999999999 C 81.02482602177469 12.83873591922744 82.42625114147553 12.467699187115981 83.849 12.491 C 85.2824865495629 12.449617075090824 86.6930134867192 12.85766986033163 87.883 13.657999999999998 Z M 81.124 17.171 C 80.1159786079777 18.33319190075551 79.60177480791195 19.843149744912235 79.69099999999999 21.378999999999998 C 79.60256916814414 22.9138335751555 80.11672259566369 24.422567115085485 81.124 25.584 C 82.1209520579306 26.620033481900194 83.51565520556034 27.17674884490391 84.952 27.111999999999995 C 85.90327539632942 27.127703919661993 86.84062798001452 26.882124460467743 87.66199999999999 26.401999999999994 C 88.46578712814333 25.924135653980613 89.12032134496718 25.231506853108826 89.55199999999999 24.401999999999994 C 90.03128347532582 23.46778301781491 90.26982519486992 22.428717285564453 90.246 21.37899999999999 C 90.26653051895414 20.333777170768386 90.02811209024642 19.299714533289677 89.55199999999999 18.368999999999993 C 89.12374440235303 17.533160933988583 88.46873885748937 16.83483491658104 87.66199999999999 16.35399999999999 C 86.84062798001452 15.873875539532246 85.90327539632942 15.628296080337995 84.952 15.643999999999991 C 83.5158089393282 15.57899231737509 82.12112922019976 16.135333992168484 81.124 17.171 Z" stroke-linecap="round" />
</g>
<g transform="matrix(1 0 0 1 290.6 252.25)" id="24F5BKibroaaLCM2mX5FY"  >
<path style="stroke: none; stroke-width: 1; stroke-dasharray: none; stroke-linecap: butt; stroke-dashoffset: 0; stroke-linejoin: miter; stroke-miterlimit: 4; fill: rgb(255,255,255); fill-rule: nonzero; opacity: 1;" vector-effect="non-scaling-stroke"  transform=" translate(-103.1, -21.25)" d="M 104.268 13.422 C 105.41141152136983 12.746677568129577 106.72032129990052 12.403175319372313 108.048 12.43 L 108.048 16.335 L 106.979 16.335 C 105.61723422606687 16.266799910134026 104.27404978910995 16.6736434066965 103.179 17.486000000000004 C 102.13646308320176 18.460949578389837 101.60682907506717 19.865422174978416 101.746 21.286 L 101.746 30.076 L 98.155 30.076 L 98.155 12.712 L 101.747 12.712 L 101.747 16.112 C 102.31876357806094 14.996887396892534 103.19227788778308 14.064815404368717 104.268 13.422000000000002 Z" stroke-linecap="round" />
</g>
</svg>